<svg xmlns="http://www.w3.org/2000/svg" viewBox="0 0 100 100">
  <!-- Definición de gradientes y filtros -->
  <defs>
    <linearGradient id="bgGradient" x1="0%" y1="0%" x2="100%" y2="100%">
      <stop offset="0%" stop-color="#051a3c"/>
      <stop offset="100%" stop-color="#082a5e"/>
    </linearGradient>
    <radialGradient id="glowGradient" cx="50%" cy="50%" r="50%" fx="50%" fy="50%">
      <stop offset="0%" stop-color="#3d5a89" stop-opacity="0.6"/>
      <stop offset="100%" stop-color="#1e2d47" stop-opacity="0"/>
    </radialGradient>
    <filter id="textGlow" x="-20%" y="-20%" width="140%" height="140%">
      <feGaussianBlur in="SourceAlpha" stdDeviation="2" result="blur"/>
      <feFlood flood-color="#264578" flood-opacity="0.7" result="color"/>
      <feComposite in="color" in2="blur" operator="in" result="shadow"/>
      <feComposite in="SourceGraphic" in2="shadow" operator="over"/>
    </filter>
    <filter id="outerGlow" x="-20%" y="-20%" width="140%" height="140%">
      <feGaussianBlur in="SourceGraphic" stdDeviation="1.5" result="blur"/>
      <feFlood flood-color="#5f8dc5" flood-opacity="0.3" result="color"/>
      <feComposite in="color" in2="blur" operator="in" result="glow"/>
      <feComposite in="SourceGraphic" in2="glow" operator="over"/>
    </filter>
  </defs>
  
  <!-- Fondo hexagonal oscuro -->
  <polygon points="50,5 90,25 90,75 50,95 10,75 10,25" fill="url(#bgGradient)"/>
  
  <!-- Resplandor central sutil -->
  <circle cx="50" cy="50" r="40" fill="url(#glowGradient)"/>
  
  <!-- Signo de interrogación con brillo azulado -->
  <text x="50" y="70" font-family="Arial" font-size="70" font-weight="bold" fill="#a3c2ee" text-anchor="middle" filter="url(#textGlow)">?</text>
  
  <!-- Contorno hexagonal con brillo sutil -->
  <polygon points="50,5 90,25 90,75 50,95 10,75 10,25" fill="none" stroke="#3a5987" stroke-width="2" stroke-opacity="0.8" filter="url(#outerGlow)"/>
  
  <!-- Puntos brillantes en las esquinas -->
  <circle cx="50" cy="5" r="2" fill="#5f8dc5" opacity="0.7"/>
  <circle cx="90" cy="25" r="2" fill="#5f8dc5" opacity="0.7"/>
  <circle cx="90" cy="75" r="2" fill="#5f8dc5" opacity="0.7"/>
  <circle cx="50" cy="95" r="2" fill="#5f8dc5" opacity="0.7"/>
  <circle cx="10" cy="75" r="2" fill="#5f8dc5" opacity="0.7"/>
  <circle cx="10" cy="25" r="2" fill="#5f8dc5" opacity="0.7"/>
</svg> 